<?xml version="1.0" encoding="UTF-8" standalone="no"?>
<!-- Created with Inkscape (http://www.inkscape.org/) -->

<svg
   width="50.181187mm"
   height="35.236519mm"
   viewBox="0 0 50.181187 35.236519"
   version="1.1"
   id="svg1150"
   inkscape:version="1.1 (c68e22c387, 2021-05-23)"
   sodipodi:docname="dessin2.svg"
   xmlns:inkscape="http://www.inkscape.org/namespaces/inkscape"
   xmlns:sodipodi="http://sodipodi.sourceforge.net/DTD/sodipodi-0.dtd"
   xmlns="http://www.w3.org/2000/svg"
   xmlns:svg="http://www.w3.org/2000/svg">
  <sodipodi:namedview
     id="namedview1152"
     pagecolor="#ffffff"
     bordercolor="#999999"
     borderopacity="1"
     inkscape:pageshadow="0"
     inkscape:pageopacity="0"
     inkscape:pagecheckerboard="0"
     inkscape:document-units="mm"
     showgrid="false"
     fit-margin-top="0"
     fit-margin-left="0"
     fit-margin-right="0"
     fit-margin-bottom="0"
     inkscape:zoom="1.3879489"
     inkscape:cx="154.54459"
     inkscape:cy="131.48899"
     inkscape:window-width="1920"
     inkscape:window-height="1001"
     inkscape:window-x="2391"
     inkscape:window-y="-9"
     inkscape:window-maximized="1"
     inkscape:current-layer="layer1" />
  <defs
     id="defs1147" />
  <g
     inkscape:label="Calque 1"
     inkscape:groupmode="layer"
     id="layer1"
     transform="translate(-48.18938,-107.59639)">
    <path
       style="fill:#000000;stroke:#000000;stroke-width:0.665001"
       id="path1850"
       d="m 33.374492,161.37546 c 0.473972,-0.48363 0.886892,-1.02353 1.320973,-1.54332 0.448235,-0.65762 0.74047,-1.40155 1.134841,-2.09109 0.384723,-0.65671 0.679827,-1.35824 1.016362,-2.03947 0.293862,-0.68213 0.514326,-1.38994 0.726023,-2.10039 0.284383,-0.98499 0.488014,-1.9947 0.657563,-3.00567 0.168569,-1.07682 0.444991,-2.13117 0.620512,-3.20621 0.09169,-1.04717 0.371792,-2.06113 0.563734,-3.09121 0.140528,-1.00765 0.298499,-2.01236 0.456853,-3.01733 0.101,-0.785 0.229104,-1.56497 0.302196,-2.35351 0.04049,-0.55033 0.05402,-1.10204 0.05971,-1.65367 0,0 -3.527929,1.79435 -3.527929,1.79435 v 0 c -0.0022,0.5385 -0.0089,1.07758 -0.05587,1.61439 -0.07105,0.77814 -0.194837,1.54911 -0.292927,2.32405 -0.141768,1.00111 -0.29657,2.00041 -0.454212,2.99912 -0.198689,1.02919 -0.449012,2.04853 -0.554564,3.09402 -0.194217,1.06938 -0.447874,2.12733 -0.615737,3.20196 -0.186813,1.00294 -0.39575,2.00565 -0.707884,2.97811 -0.214124,0.69425 -0.450926,1.3844 -0.753797,2.04545 -0.323868,0.68195 -0.649404,1.36284 -1.022696,2.01961 -0.365441,0.68797 -0.671764,1.41843 -1.170631,2.02457 -0.438931,0.52624 -0.873188,1.05688 -1.349818,1.54991 0,0 3.647299,-1.54367 3.647299,-1.54367 z" />
    <path
       style="fill:#000000;stroke:#000000;stroke-width:0.665001"
       id="path1852"
       d="m 59.401225,160.92183 c -0.5973,-0.37172 -1.113365,-0.85495 -1.632364,-1.32603 -0.536463,-0.44013 -0.954857,-0.98678 -1.386076,-1.52382 -0.401364,-0.55557 -0.75175,-1.14382 -1.011507,-1.77828 -0.264611,-0.62772 -0.433764,-1.28835 -0.683382,-1.92163 -0.399184,-0.96964 -0.621467,-1.99655 -0.915972,-2.99945 -0.262556,-1.10271 -0.531064,-2.20379 -0.798504,-3.30559 -0.206876,-1.02704 -0.437838,-2.04879 -0.65185,-3.07423 -0.233828,-0.91459 -0.37614,-1.84371 -0.441663,-2.78421 -0.05048,-0.86915 -0.03924,-1.73989 -0.03985,-2.60998 -8.73e-4,-0.63695 0.0097,-1.27383 0.01621,-1.91072 0.0034,-0.41637 0.0069,-0.83277 0.0036,-1.24914 0,0 -3.528288,1.79766 -3.528288,1.79766 v 0 c -0.0034,0.41526 -3.92e-4,0.83052 0.0014,1.24577 0.0039,0.63317 0.01011,1.26634 0.0087,1.89953 0.0016,0.87603 0.01766,1.75261 0.06738,2.62731 0.07265,0.95702 0.234268,1.8952 0.475492,2.82527 0.215504,1.02884 0.43757,2.05633 0.65649,3.08449 0.261344,1.1074 0.566349,2.20382 0.816743,3.31396 0.278836,1.02114 0.522422,2.05352 0.898084,3.0456 0.227831,0.64608 0.410827,1.30876 0.681446,1.93905 0.280387,0.66555 0.649891,1.28355 1.070328,1.87064 0.439181,0.55728 0.863905,1.12661 1.41939,1.57724 0.524174,0.47884 1.042646,0.9699 1.629897,1.37184 0,0 3.344372,-2.11528 3.344372,-2.11528 z" />
    <path
       style="fill:#000000;stroke:#000000;stroke-width:0.665001"
       id="path1854"
       d="m 25.054579,134.13384 c -1.034264,-0.59935 -2.069339,-1.1973 -3.102792,-1.79804 -0.111148,-0.0646 0.224592,0.12521 0.335853,0.18963 1.228884,0.71146 2.456293,1.42546 3.684561,2.13798 1.012394,0.58729 -2.025853,-1.17275 -3.036938,-1.76229 -0.101709,-0.0593 0.206776,0.1127 0.308756,0.17154 1.219184,0.70342 2.436461,1.41015 3.654692,2.11523 0.08798,0.0604 0.356583,0.23422 0.263933,0.18124 -1.037696,-0.5933 -2.067086,-1.20101 -3.099929,-1.80272 -0.08583,-0.05 0.17293,0.0978 0.258872,0.14759 1.207433,0.69972 2.417619,1.39474 3.621248,2.10098 1.043551,0.61232 -2.094769,-1.21147 -3.141005,-1.81919 -0.08038,-0.0467 0.16227,0.0907 0.243405,0.13609 2.047197,1.14518 7.71747,4.49895 0.925535,0.53342 -0.06851,-0.04 0.141432,0.0719 0.211899,0.1084 0.07657,0.0396 0.152805,0.0799 0.229208,0.1198 0.472395,0.25382 0.971485,0.44318 1.495458,0.55389 0.639808,0.0755 1.278776,0.16202 1.919256,0.23289 0.68414,0.0673 1.371719,0.0801 2.058608,0.0863 0.549271,-8e-5 1.098547,7.9e-4 1.647817,4e-5 0.511731,0.001 1.023459,-0.002 1.535185,-0.004 0.409124,-0.0279 0.808725,0.0235 1.210851,0.0895 0.372032,0.0632 0.749019,0.0822 1.125548,0.0935 0.419066,0.009 0.838237,0.009 1.257377,0.008 0.432152,-0.002 0.864287,-0.002 1.296434,5.3e-4 0.642139,0.007 1.284341,0.005 1.926505,0.003 0.63988,-0.001 1.279755,2.6e-4 1.919629,0.003 0.691639,0.001 1.383289,-2.6e-4 2.074926,-0.003 0.580705,-0.003 1.161417,-2.5e-4 1.742127,-0.001 0.51855,0.001 1.037098,-0.002 1.555645,-0.004 0.589828,0.001 1.179719,-2.6e-4 1.769218,0.0208 0.682049,0.0827 1.365652,0.18715 2.035233,0.34329 1.726637,0.49801 3.288397,1.68428 4.772575,2.54658 0.477419,0.39676 0.951227,0.80566 1.391252,1.2437 0.541066,0.49867 1.080222,1.00021 1.617293,1.50398 0.457561,0.42229 0.84525,0.91257 1.263084,1.37311 0.26009,0.35062 0.447142,0.74996 0.764008,1.05565 0,0 -3.65234,-1.54742 -3.65234,-1.54742 v 0 c -0.24628,-0.34982 -0.465508,-0.72006 -0.75168,-1.03951 -0.404343,-0.45744 -0.797344,-0.92715 -1.256088,-1.33251 -0.539141,-0.503 -1.082043,-1.00183 -1.619582,-1.50654 -0.462818,-0.41314 -0.911559,-0.85204 -1.44103,-1.1805 1.05644,0.60724 2.112041,1.21595 3.169319,1.82173 0.07028,0.0403 -0.137245,-0.0862 -0.208265,-0.12515 -0.29467,-0.16155 -0.604671,-0.31078 -0.925079,-0.41 -0.646595,-0.21543 -1.32863,-0.26898 -1.992638,-0.4158 -0.576587,-0.0522 -1.154551,-0.0194 -1.733039,-0.0248 -0.521852,-0.002 -1.043705,-0.005 -1.565561,-0.004 -0.581867,-10e-4 -1.163738,0.001 -1.745601,-10e-4 -0.694166,-0.002 -1.388346,-0.004 -2.082515,-0.003 -0.636962,0.003 -1.273926,0.004 -1.910894,0.003 -0.639377,-0.002 -1.278797,-0.005 -1.918146,0.003 -0.430596,0.003 -0.861183,0.003 -1.291789,0.002 -0.419284,1.5e-4 -0.838559,0.003 -1.257838,0.001 -0.385808,-0.004 -0.772494,-0.008 -1.156212,-0.0531 -0.395077,-0.053 -0.778467,-0.17283 -1.18041,-0.13996 -0.514206,-0.002 -1.028419,-0.004 -1.542626,-0.002 -0.553298,5.3e-4 -1.106599,0.004 -1.659877,-0.004 -0.693124,-0.007 -1.387301,-0.007 -2.078843,-0.0595 -0.647776,-0.0513 -1.285223,-0.1687 -1.93385,-0.20932 -0.549505,-0.0675 -1.063079,-0.2001 -1.561742,-0.44746 -1.376508,-0.71666 -2.67197,-1.50148 -4.04286,-2.28723 -0.07655,-0.0439 -0.302205,-0.18222 -0.225642,-0.13837 1.047214,0.59977 2.091479,1.20468 3.137693,1.8062 0.08095,0.0465 -0.161261,-0.0942 -0.241892,-0.14126 -1.448491,-0.74459 -0.702383,-0.35593 -3.858576,-2.21346 -1.03634,-0.60992 2.084331,1.19983 3.125917,1.80075 0.0866,0.05 -0.174446,-0.0978 -0.260963,-0.14788 -3.642098,-2.10964 -2.450784,-1.37534 -3.902145,-2.27425 1.026395,0.59068 2.053446,1.18021 3.079185,1.77202 0.102809,0.0593 -0.20747,-0.11538 -0.310378,-0.17452 -1.229362,-0.70654 -2.461783,-1.40782 -3.686419,-2.12252 -1.008686,-0.58867 2.027904,1.15913 3.038555,1.74442 0.108218,0.0627 -0.220717,-0.11763 -0.331076,-0.17646 -1.217339,-0.70426 -2.434678,-1.40853 -3.652017,-2.11279 0,0 3.691617,1.43192 3.691617,1.43192 z" />
  </g>
</svg>
