<?xml version="1.0" encoding="UTF-8" standalone="no"?>
<!-- Generator: Adobe Illustrator 19.0.0, SVG Export Plug-In . SVG Version: 6.00 Build 0)  -->

<svg
   version="1.1"
   id="Layer_1"
   x="0px"
   y="0px"
   viewBox="0 0 570 550"
   style="enable-background:new 0 0 570 550;"
   xml:space="preserve"
   sodipodi:docname="drawing11.svg"
   inkscape:version="1.1 (c68e22c387, 2021-05-23)"
   xmlns:inkscape="http://www.inkscape.org/namespaces/inkscape"
   xmlns:sodipodi="http://sodipodi.sourceforge.net/DTD/sodipodi-0.dtd"
   xmlns="http://www.w3.org/2000/svg"
   xmlns:svg="http://www.w3.org/2000/svg"><defs
   id="defs51" /><sodipodi:namedview
   id="namedview49"
   pagecolor="#ffffff"
   bordercolor="#999999"
   borderopacity="1"
   inkscape:pageshadow="0"
   inkscape:pageopacity="0"
   inkscape:pagecheckerboard="0"
   showgrid="false"
   inkscape:zoom="1.0758519"
   inkscape:cx="220.29054"
   inkscape:cy="266.30059"
   inkscape:window-width="1920"
   inkscape:window-height="1001"
   inkscape:window-x="2391"
   inkscape:window-y="-9"
   inkscape:window-maximized="1"
   inkscape:current-layer="Layer_1" />
<g
   id="g6">
	<path
   style="fill:#FFD41D;"
   d="M273.79,97.188c2.558,10.674,3.923,21.814,3.923,33.279c0,77.917-62.602,141.082-139.825,141.082   c-46.429,0-87.566-22.838-112.996-57.982c-9.308,23.315-14.443,48.78-14.443,75.456c0,111.6,89.666,202.07,200.272,202.07   c169.073,0,200.275-129.779,200.275-202.07C410.996,199.658,353.494,123.852,273.79,97.188z"
   id="path2" />
	<path
   style="fill:#FFD41D;"
   d="M419.315,126.694c0-58.422-47.362-105.785-105.784-105.785   c-58.423,0-105.785,47.363-105.785,105.785c0,58.424,47.362,105.784,105.785,105.784c26.778,0,51.229-9.948,69.865-26.352   C405.418,186.738,419.315,158.341,419.315,126.694z"
   id="path4" />
</g>
<path
   style="fill:#FF1A1A;"
   d="M478.927,164.329c-25.281,0-47.426-13.427-59.699-33.535c-0.928,24.312-10.054,46.517-24.699,63.933  c11.374,7.392,24.935,11.701,39.511,11.701c30.656,0,56.855-19.004,67.512-45.866C494.451,162.993,486.848,164.329,478.927,164.329z  "
   id="path8" />
<path
   d="M105.738,395.975c-1.824,0-3.673-0.481-5.354-1.492l-0.212-0.13c-4.915-3.017-6.488-9.463-3.476-14.381  c3.012-4.917,9.405-6.486,14.331-3.477c0.005,0.003,0.07,0.043,0.075,0.046c4.944,2.975,6.57,9.411,3.594,14.357  C112.734,394.162,109.282,395.975,105.738,395.975z"
   id="path10" />
<path
   d="M80.177,373.84c-2.989,0-5.958-1.277-8.025-3.75c-18.163-21.746-28.166-49.732-28.166-78.801  c0-5.771,4.679-10.449,10.449-10.449s10.449,4.678,10.449,10.449c0,24.182,8.278,47.41,23.307,65.404  c3.7,4.429,3.109,11.018-1.322,14.717C84.917,373.043,82.54,373.84,80.177,373.84z"
   id="path12" />
<path
   d="M509.114,153.353c-2.813-2.952-7.089-3.998-10.946-2.677c-6.212,2.125-12.686,3.204-19.242,3.204  c-19.733,0-38.072-9.741-49.177-26.068c0.004-0.373,0.016-0.745,0.016-1.119c0-64.092-52.141-116.234-116.233-116.234  S197.297,62.601,197.297,126.693c0,34.876,15.443,66.21,39.847,87.533c-24.48,29.501-60.931,46.873-99.255,46.873  c-41.141,0-80.218-20.06-104.531-53.66c-2.234-3.086-5.966-4.707-9.75-4.244c-3.78,0.469-7.007,2.958-8.42,6.496  C5.111,234.935,0,261.626,0,289.023c0,117.183,94.53,212.519,210.721,212.519c41.199,0,77.293-7.571,107.279-22.503  c26.275-13.084,48.087-31.89,64.831-55.894c33.598-48.167,38.614-104.706,38.614-134.121c0-26.549-4.734-52.222-14.091-76.561  c8.561,2.903,17.59,4.416,26.686,4.416c34.27,0,64.582-20.593,77.224-52.462C512.767,160.625,511.929,156.305,509.114,153.353z   M218.193,126.694c0-52.569,42.769-95.336,95.336-95.336s95.335,42.768,95.335,95.336c0,27.383-11.8,53.477-32.374,71.589  c-17.398,15.313-39.757,23.746-62.961,23.746C260.962,222.029,218.193,179.262,218.193,126.694z M210.721,480.644  c-104.67,0-189.823-85.961-189.823-191.621c0-18.625,2.614-36.886,7.788-54.491c28.203,30.005,67.797,47.466,109.202,47.466  c45,0,87.767-20.572,116.198-55.459c17.404,10.401,37.738,16.388,59.445,16.388c26.704,0,52.49-9.167,73.142-25.901  c9.201,22.815,13.874,46.969,13.874,71.997C400.547,333.975,386.858,480.644,210.721,480.644z M434.039,195.98  c-8.198,0-16.322-1.638-23.845-4.764c7.367-11.039,12.793-23.265,16.039-36.136c14.443,12.563,33.057,19.696,52.694,19.696  c0.651,0,1.302-0.007,1.952-0.023C469.315,188.047,452.439,195.98,434.039,195.98z"
   id="path14" />
<path
   d="M340.988,158.126c11.546,0,20.94-9.394,20.94-20.941s-9.394-20.942-20.94-20.942c-11.547,0-20.942,9.395-20.942,20.942  C320.046,148.732,329.441,158.126,340.988,158.126z"
   id="path16" />
<g
   id="g18">
</g>
<g
   id="g20">
</g>
<g
   id="g22">
</g>
<g
   id="g24">
</g>
<g
   id="g26">
</g>
<g
   id="g28">
</g>
<g
   id="g30">
</g>
<g
   id="g32">
</g>
<g
   id="g34">
</g>
<g
   id="g36">
</g>
<g
   id="g38">
</g>
<g
   id="g40">
</g>
<g
   id="g42">
</g>
<g
   id="g44">
</g>
<g
   id="g46">
</g>
</svg>
