<?xml version="1.0" encoding="UTF-8" standalone="no"?>
<!-- Created with Inkscape (http://www.inkscape.org/) -->

<svg
   width="50.181187mm"
   height="35.236519mm"
   viewBox="0 0 50.181187 35.236519"
   version="1.1"
   id="svg1150"
   inkscape:version="1.1 (c68e22c387, 2021-05-23)"
   sodipodi:docname="dessin_bleu.svg"
   xmlns:inkscape="http://www.inkscape.org/namespaces/inkscape"
   xmlns:sodipodi="http://sodipodi.sourceforge.net/DTD/sodipodi-0.dtd"
   xmlns="http://www.w3.org/2000/svg"
   xmlns:svg="http://www.w3.org/2000/svg">
  <sodipodi:namedview
     id="namedview1152"
     pagecolor="#ffffff"
     bordercolor="#999999"
     borderopacity="1"
     inkscape:pageshadow="0"
     inkscape:pageopacity="0"
     inkscape:pagecheckerboard="0"
     inkscape:document-units="mm"
     showgrid="false"
     fit-margin-top="0"
     fit-margin-left="0"
     fit-margin-right="0"
     fit-margin-bottom="0"
     inkscape:zoom="0.69397447"
     inkscape:cx="522.35351"
     inkscape:cy="154.90483"
     inkscape:window-width="1920"
     inkscape:window-height="1001"
     inkscape:window-x="2391"
     inkscape:window-y="-9"
     inkscape:window-maximized="1"
     inkscape:current-layer="layer1" />
  <defs
     id="defs1147" />
  <g
     inkscape:label="Calque 1"
     inkscape:groupmode="layer"
     id="layer1"
     transform="translate(-48.18938,-107.59639)">
    <path
       style="fill:#0000ff;stroke:#0000ff;stroke-width:0.665001"
       id="path1244"
       d="m 52.090531,113.92164 c 0.08454,-0.97087 0.3951,-1.87414 0.955138,-2.66747 0.115972,-0.1153 0.224041,-0.23914 0.347914,-0.3459 0.831119,-0.71634 -0.04777,0.15427 0.798732,-0.6404 0.381905,-0.35853 0.673256,-0.66996 1.124815,-0.94331 -5.470559,3.2924 -3.389291,1.82563 -2.094801,1.35293 0.448265,-0.16369 0.906782,-0.25694 1.374573,-0.34193 0.954945,-0.22296 1.75237,0.13756 2.555822,0.6124 0.690433,0.35523 1.216449,0.88762 1.76684,1.4179 0.739148,0.70989 1.563997,1.31991 2.34346,1.98567 0.796753,0.6698 1.638535,1.28424 2.414945,1.97762 0.631655,0.60776 1.356492,1.02127 2.172131,1.32092 0.830913,0.3064 1.704213,0.43844 2.581971,0.51362 0.788892,0.054 1.577043,0.0804 2.360938,-0.0326 1.954466,-0.50386 3.713932,-1.63042 5.304943,-2.85176 0.919916,-0.75303 1.909746,-1.41796 2.829052,-2.17035 0.760407,-0.55553 1.521325,-1.11188 2.314032,-1.6224 -6.306359,3.47007 -1.560525,1.011 -0.07963,0.28559 1.310304,-0.66998 2.735292,-0.95454 4.184044,-1.11213 1.521161,-0.11485 3.048201,-0.10726 4.572683,-0.10415 1.201711,0.0299 2.408266,-0.0344 3.607916,0.0514 0.563314,0.11536 0.285208,0.0465 0.834403,0.20626 0,0 3.259855,-2.22383 3.259855,-2.22383 v 0 c -0.576019,-0.18407 -0.281763,-0.0946 -0.883031,-0.26762 -1.21081,-0.15062 -2.441747,-0.009 -3.658989,-0.0616 -1.530689,-2.7e-4 -3.063192,-0.0179 -4.59191,0.0734 -1.47061,0.10995 -2.926575,0.36453 -4.271166,1.00033 -2.268731,1.10351 -4.532969,2.18552 -6.646701,3.58735 -0.780322,0.52722 -1.54908,1.07377 -2.292681,1.65153 -0.941789,0.72762 -1.897835,1.43668 -2.843453,2.1594 -1.373172,0.96199 -0.439878,0.29046 2.736083,-1.50906 0.671973,-0.38074 -1.848401,0.9668 -1.216673,0.53241 -0.767247,0.14438 -1.526628,0.17038 -2.30772,0.10939 -0.853834,-0.0499 -1.708565,-0.14136 -2.52236,-0.42171 -0.777883,-0.28094 -1.491163,-0.59981 -2.092841,-1.19265 -0.775896,-0.7002 -1.630069,-1.30439 -2.42633,-1.98162 -0.771025,-0.66077 -1.585277,-1.26684 -2.316967,-1.96957 -0.561202,-0.56521 -1.107961,-1.11802 -1.820452,-1.49702 -0.838107,-0.49996 -1.698432,-1.02005 -2.715646,-0.83533 -2.339859,0.32976 -4.031935,1.43259 -6.100331,2.79907 -0.792906,0.61727 -1.552083,1.32051 -2.212161,2.07381 -0.515635,0.87899 -0.80496,1.8607 -0.875395,2.87955 0,0 3.528944,-1.79809 3.528944,-1.79809 z" />
    <path
       style="fill:#0000ff;stroke:#0000ff;stroke-width:0.665001"
       id="path1279"
       d="m 64.193165,119.78952 c 0.03405,1.27018 0.02016,2.54114 0.01363,3.81162 -0.0069,1.14938 0.0042,2.29875 0.0031,3.44814 0.0269,1.06712 -0.05202,2.1392 -0.301197,3.17839 -0.352459,1.04143 -0.696219,2.0886 -1.146079,3.09262 -0.427083,0.95751 -0.857213,1.91032 -1.311183,2.85495 -0.50166,0.98303 -1.116068,1.89979 -1.722435,2.81977 -0.364087,0.71387 -0.721971,1.40371 -1.336008,1.93372 0.01728,0.15073 -0.745961,0.56971 -0.662919,0.52052 5.235723,-3.10104 3.95101,-1.99101 2.543469,-1.65241 -1.000358,0.11819 -2.006756,0.20033 -3.010683,0.28978 0,0 -3.137911,2.32077 -3.137911,2.32077 v 0 c 0.995971,-0.0807 1.989254,-0.19045 2.987503,-0.22573 1.898812,-0.24202 3.630988,-1.40012 4.940702,-2.76947 0.526175,-0.60781 0.888072,-1.29941 1.278676,-1.99826 0.601028,-0.93508 1.219266,-1.86229 1.702911,-2.86598 0.457237,-0.94394 0.872101,-1.90721 1.296742,-2.86611 0.432162,-1.03365 0.814469,-2.09136 1.124492,-3.16818 0.204044,-1.07004 0.292936,-2.15581 0.24932,-3.24538 -0.0011,-1.15045 0.01003,-2.3009 0.0031,-3.45134 -0.0066,-1.27511 -0.02021,-2.55069 0.01363,-3.8255 0,0 -3.528944,1.79808 -3.528944,1.79808 z" />
    <path
       style="fill:#0000ff;stroke:#0000ff;stroke-width:0.665001"
       id="path1281"
       d="m 78.299711,114.45191 c 0.13158,1.7578 0.440754,3.49122 0.814319,5.2119 0.532175,1.77185 0.963665,3.57235 1.66348,5.28808 0.50935,1.2998 1.083278,2.56905 1.83342,3.74748 0.577289,0.8972 1.266529,1.73931 1.971797,2.54273 0.673406,0.69965 1.405329,1.32713 2.241666,1.82044 1.22152,0.6797 2.364978,1.46164 3.689445,1.92965 0.751205,0.2175 1.426832,0.61595 2.158638,0.8798 0,0 3.275338,-2.22541 3.275338,-2.22541 v 0 c -0.75582,-0.21886 -1.421377,-0.65302 -2.183781,-0.86098 -1.326584,-0.40636 -2.462808,-1.15276 -3.647641,-1.85869 -0.806051,-0.46516 -1.500722,-1.07327 -2.162779,-1.72504 -0.707085,-0.7732 -1.370007,-1.61326 -1.952254,-2.48032 -0.742236,-1.15745 -1.319178,-2.3954 -1.816076,-3.67795 -0.707504,-1.68452 -1.149173,-3.46202 -1.650797,-5.21541 -0.367151,-1.7036 -0.691742,-3.42522 -0.705831,-5.17437 0,0 -3.528944,1.79809 -3.528944,1.79809 z" />
  </g>
</svg>
