<?xml version="1.0" encoding="UTF-8" standalone="no"?>
<!-- Generator: Adobe Illustrator 19.0.0, SVG Export Plug-In . SVG Version: 6.00 Build 0)  -->

<svg
   version="1.1"
   id="Layer_1"
   x="0px"
   y="0px"
   viewBox="0 0 512 512"
   style="enable-background:new 0 0 512 512;"
   xml:space="preserve"
   sodipodi:docname="drawing13.svg"
   inkscape:version="1.1 (c68e22c387, 2021-05-23)"
   xmlns:inkscape="http://www.inkscape.org/namespaces/inkscape"
   xmlns:sodipodi="http://sodipodi.sourceforge.net/DTD/sodipodi-0.dtd"
   xmlns="http://www.w3.org/2000/svg"
   xmlns:svg="http://www.w3.org/2000/svg"><defs
   id="defs51" /><sodipodi:namedview
   id="namedview49"
   pagecolor="#ffffff"
   bordercolor="#999999"
   borderopacity="1"
   inkscape:pageshadow="0"
   inkscape:pageopacity="0"
   inkscape:pagecheckerboard="0"
   showgrid="false"
   inkscape:zoom="1.5214843"
   inkscape:cx="253.69962"
   inkscape:cy="213.27857"
   inkscape:window-width="1920"
   inkscape:window-height="1001"
   inkscape:window-x="2391"
   inkscape:window-y="-9"
   inkscape:window-maximized="1"
   inkscape:current-layer="Layer_1" />
<g
   id="g6"
   style="fill:#0000ff">
	<path
   style="fill:#0000ff"
   d="m 273.79,97.188 c 2.558,10.674 3.923,21.814 3.923,33.279 0,77.917 -62.602,141.082 -139.825,141.082 -46.429,0 -87.566,-22.838 -112.996,-57.982 -9.308,23.315 -14.443,48.78 -14.443,75.456 0,111.6 92.45449,218.80093 203.06049,218.80093 169.073,0 197.48651,-146.50993 197.48651,-218.80093 0,-89.365 -57.502,-165.171 -137.206,-191.835 z"
   id="path2"
   sodipodi:nodetypes="csscsssc" />
	<path
   style="fill:#0000ff"
   d="M419.315,126.694c0-58.422-47.362-105.785-105.784-105.785   c-58.423,0-105.785,47.363-105.785,105.785c0,58.424,47.362,105.784,105.785,105.784c26.778,0,51.229-9.948,69.865-26.352   C405.418,186.738,419.315,158.341,419.315,126.694z"
   id="path4" />
</g>
<path
   style="fill:#ff1a1a"
   d="m 478.927,164.329 c -25.281,0 -47.426,-13.427 -59.699,-33.535 -0.928,24.312 -10.054,46.517 -24.699,63.933 11.374,7.392 30.2796,13.55999 44.8556,13.55999 30.656,0 85.06076,-20.80293 95.71776,-47.66493 -7.101,2.431 -48.25436,3.70694 -56.17536,3.70694 z"
   id="path8"
   sodipodi:nodetypes="sccscs" />
<path
   d="M105.738,395.975c-1.824,0-3.673-0.481-5.354-1.492l-0.212-0.13c-4.915-3.017-6.488-9.463-3.476-14.381  c3.012-4.917,9.405-6.486,14.331-3.477c0.005,0.003,0.07,0.043,0.075,0.046c4.944,2.975,6.57,9.411,3.594,14.357  C112.734,394.162,109.282,395.975,105.738,395.975z"
   id="path10" />
<path
   d="M80.177,373.84c-2.989,0-5.958-1.277-8.025-3.75c-18.163-21.746-28.166-49.732-28.166-78.801  c0-5.771,4.679-10.449,10.449-10.449s10.449,4.678,10.449,10.449c0,24.182,8.278,47.41,23.307,65.404  c3.7,4.429,3.109,11.018-1.322,14.717C84.917,373.043,82.54,373.84,80.177,373.84z"
   id="path12" />
<path
   d="m 555.1217,142.83695 c -2.813,-2.952 -33.37911,8.48981 -37.23611,9.81081 -6.212,2.125 -32.40359,1.23224 -38.95959,1.23224 -19.733,0 -38.072,-9.741 -49.177,-26.068 0.004,-0.373 0.016,-0.745 0.016,-1.119 0,-64.092 -52.141,-116.234 -116.233,-116.234 -64.092,0 -116.235,52.142 -116.235,116.234 0,34.876 15.443,66.21 39.847,87.533 -24.48,29.501 -60.931,46.873 -99.255,46.873 -41.141,0 -80.218,-20.06 -104.531,-53.66 -2.234,-3.086 -5.966,-4.707 -9.75,-4.244 -3.78,0.469 -7.007,2.958 -8.42,6.496 C 5.111,234.935 0,261.626 0,289.023 c 0,117.183 96.388992,236.6859 212.57999,236.6859 41.199,0 86.58796,-14.07748 116.57396,-29.00948 26.275,-13.084 39.72154,-35.60798 56.46554,-59.61198 33.598,-48.167 35.82551,-118.64844 35.82551,-148.06344 0,-26.549 -4.734,-52.222 -14.091,-76.561 8.561,2.903 17.59,4.416 26.686,4.416 34.27,0 108.61794,-31.43767 121.25994,-63.30667 1.503,-3.792 2.63676,-7.78338 -0.17824,-10.73538 z M 218.193,126.694 c 0,-52.569 42.769,-95.336 95.336,-95.336 52.567,0 95.335,42.768 95.335,95.336 0,27.383 -11.8,53.477 -32.374,71.589 -17.398,15.313 -39.757,23.746 -62.961,23.746 -52.567,0 -95.336,-42.767 -95.336,-95.335 z m -5.61301,377.1874 C 107.90999,503.8814 20.898,394.683 20.898,289.023 c 0,-18.625 2.614,-36.886 7.788,-54.491 28.203,30.005 67.797,47.466 109.202,47.466 45,0 87.767,-20.572 116.198,-55.459 17.404,10.401 37.738,16.388 59.445,16.388 26.704,0 52.49,-9.167 73.142,-25.901 9.201,22.815 13.874,46.969 13.874,71.997 0,44.952 -11.83001,214.8584 -187.96701,214.8584 z M 443.33396,199.23324 c -8.198,0 -25.61696,-4.89124 -33.13996,-8.01724 7.367,-11.039 12.793,-23.265 16.039,-36.136 14.443,12.563 50.80283,11.80897 70.43983,11.80897 0.651,0 37.77953,-6.25091 38.42953,-6.26691 -11.564,13.294 -73.3684,38.61118 -91.7684,38.61118 z"
   id="path14"
   sodipodi:nodetypes="ccscssscscccssscscsccssscsssscscscsssccscs" />
<path
   d="m 363.99185,127.23511 c 11.546,0 20.94,-9.394 20.94,-20.941 0,-11.546996 -9.394,-20.941996 -20.94,-20.941996 -11.547,0 -20.942,9.395 -20.942,20.941996 0,11.547 9.395,20.941 20.942,20.941 z"
   id="path16" />
<g
   id="g18">
</g>
<g
   id="g20">
</g>
<g
   id="g22">
</g>
<g
   id="g24">
</g>
<g
   id="g26">
</g>
<g
   id="g28">
</g>
<g
   id="g30">
</g>
<g
   id="g32">
</g>
<g
   id="g34">
</g>
<g
   id="g36">
</g>
<g
   id="g38">
</g>
<g
   id="g40">
</g>
<g
   id="g42">
</g>
<g
   id="g44">
</g>
<g
   id="g46">
</g>
</svg>
